{"title":"The Last Ship S03E06 1080p HDTV 6CH HEVC X265-GIRAYS 550MB","uid":15340814,"size":570893416,"categoryP":"video","categoryS":"hd___tv_shows","magnet":"?xt=urn:btih:a0da68544642657f5dc3e333071a8ccf4a2d2744&amp;dn=The+Last+Ship+S03E06+1080p+HDTV+6CH+HEVC+X265-GIRAYS+550MB&amp;tr=udp%3A%2F%2Ftracker.leechers-paradise.org%3A6969&amp;tr=udp%3A%2F%2Fzer0day.ch%3A1337&amp;tr=udp%3A%2F%2Fopen.demonii.com%3A1337&amp;tr=udp%3A%2F%2Ftracker.coppersurfer.tk%3A6969&amp;tr=udp%3A%2F%2Fexodus.desync.com%3A6969","seeders":2,"leechers":1,"uploader":"insane86","files":1,"time":1468835049,"description":"Source: The.Last.Ship.S03E06.1080p.HDTV.X264-DIMENSION\r\n\r\nScreenshots: \nhttps://s31.postimg.org/cc9z953m3/The_Last_Ship_S03_E06_1080p_HDTV_X264_DIMENSION_n.png \nhttps://s31.postimg.org/ycqbprma3/The_Last_Ship_S03_E06_1080p_HDTV_X264_DIMENSION_n.png\r\n\r\nGeneral\r\nFormat                      : Matroska\r\nFormat version              : Version 4 / Version 2\r\nFile size                   : 544 MiB\r\nDuration                    : 42mn 10s\r\nOverall bit rate            : 1 805 Kbps\r\nEncoded date                : UTC 2016-07-18 07:36:14\r\nWriting application         : mkvmerge v9.3.1 ('Mask Machine') 64bit\r\nWriting library             : libebml v1.3.4 + libmatroska v1.4.5\r\n\r\nVideo\r\nID                          : 1\r\nFormat                      : HEVC\r\nFormat/Info                 : High Efficiency Video Coding\r\nFormat profile              :   @Main\r\nCodec ID                    : V_MPEGH/ISO/HEVC\r\nDuration                    : 42mn 10s\r\nBit rate                    : 1 590 Kbps\r\nWidth                       : 1 920 pixels\r\nHeight                      : 1 068 pixels\r\nDisplay aspect ratio        : 16:9\r\nFrame rate mode             : Constant\r\nFrame rate                  : 23.976 (24000/1001) fps\r\nColor space                 : YUV\r\nChroma subsampling          : 4:2:0\r\nBit depth                   : 8 bits\r\nBits/(Pixel*Frame)          : 0.032\r\nStream size                 : 480 MiB (88%)\r\nWriting library             : x265 1.9+200-6098ba3e0cf16b11:[Windows][GCC 5.3.0][64 bit] 8bit+10bit+12bit\r\nEncoding settings           : wpp / ctu=64 / min-cu-size=8 / max-tu-size=32 / tu-intra-depth=1 / tu-inter-depth=1 / me=1 / subme=1 / merange=57 / no-rect / no-amp / max-merge=2 / temporal-mvp / early-skip / recursion-skip / rdpenalty=0 / no-tskip / no-tskip-fast / strong-intra-smoothing / no-lossless / no-cu-lossless / no-constrained-intra / fast-intra / open-gop / no-temporal-layers / interlace=0 / keyint=250 / min-keyint=23 / scenecut=40 / rc-lookahead=15 / lookahead-slices=6 / bframes=4 / bframe-bias=0 / b-adapt=0 / ref=2 / limit-refs=3 / no-limit-modes / weightp / no-weightb / aq-mode=1 / qg-size=32 / aq-strength=1.00 / cbqpoffs=0 / crqpoffs=0 / rd=2 / psy-rd=2.00 / rdoq-level=0 / psy-rdoq=0.00 / no-rd-refine / signhide / deblock=0:0 / sao / no-sao-non-deblock / b-pyramid / cutree / no-intra-refresh / rc=2 / pass / bitrate=1591 / qcomp=0.60 / qpmin=0 / qpmax=51 / qpstep=4 / cplxblur=20.0 / qblur=0.5 / ipratio=1.40 / pbratio=1.30\r\nDefault                     : Yes\r\nForced                      : No\r\n\r\nAudio\r\nID                          : 2\r\nFormat                      : AAC\r\nFormat/Info                 : Advanced Audio Codec\r\nFormat profile              : HE-AAC / LC\r\nCodec ID                    : A_AAC\r\nDuration                    : 42mn 10s\r\nBit rate                    : 212 Kbps\r\nChannel(s)                  : 6 channels\r\nChannel positions           : Front: L C R, Side: L R, LFE\r\nSampling rate               : 48.0 KHz / 24.0 KHz\r\nFrame rate                  : 23.438 fps (1024 spf)\r\nCompression mode            : Lossy\r\nDelay relative to video     : 40ms\r\nStream size                 : 64.1 MiB (12%)\r\nLanguage                    : English\r\nDefault                     : Yes\r\nForced                      : No\r\n\r\nText\r\nID                          : 3\r\nFormat                      : UTF-8\r\nCodec ID                    : S_TEXT/UTF8\r\nCodec ID/Info               : UTF-8 Plain Text\r\nDuration                    : 41mn 36s\r\nBit rate                    : 48 bps\r\nCount of elements           : 578\r\nStream size                 : 14.9 KiB (0%)\r\nTitle                       : English\r\nLanguage                    : English\r\nDefault                     : Yes\r\nForced                      : No","torrent":{"xt":"urn:btih:a0da68544642657f5dc3e333071a8ccf4a2d2744","amp;dn":"The+Last+Ship+S03E06+1080p+HDTV+6CH+HEVC+X265-GIRAYS+550MB","amp;tr":["udp%3A%2F%2Ftracker.leechers-paradise.org%3A6969","udp%3A%2F%2Fzer0day.ch%3A1337","udp%3A%2F%2Fopen.demonii.com%3A1337","udp%3A%2F%2Ftracker.coppersurfer.tk%3A6969","udp%3A%2F%2Fexodus.desync.com%3A6969"],"infoHash":"a0da68544642657f5dc3e333071a8ccf4a2d2744","infoHashBuffer":{"type":"Buffer","data":[160,218,104,84,70,66,101,127,93,195,227,51,7,26,140,207,74,45,39,68]},"announce":[],"urlList":[]}}